{
    "asset" : {
        "generator" : "Khronos glTF Blender I/O v3.4.49",
        "version" : "2.0"
    },
    "scene" : 0,
    "scenes" : [
        {
            "name" : "Scene",
            "nodes" : [
                0
            ]
        }
    ],
    "nodes" : [
        {
            "mesh" : 0,
            "name" : "Highfidelitycharms copy.006",
            "translation" : [
                -6.2010369300842285,
                0,
                -1.1269246339797974
            ]
        }
    ],
    "materials" : [
        {
            "doubleSided" : true,
            "name" : "Material.001",
            "pbrMetallicRoughness" : {
                "baseColorFactor" : [
                    0.9335046410560608,
                    1,
                    0.9702246785163879,
                    1
                ],
                "metallicFactor" : 0,
                "roughnessFactor" : 0.5
            }
        }
    ],
    "meshes" : [
        {
            "name" : "Highfidelitycharms copy.006",
            "primitives" : [
                {
                    "attributes" : {
                        "POSITION" : 0,
                        "NORMAL" : 1
                    },
                    "indices" : 2,
                    "material" : 0
                }
            ]
        }
    ],
    "accessors" : [
        {
            "bufferView" : 0,
            "componentType" : 5126,
            "count" : 75180,
            "max" : [
                6.892696380615234,
                0.36000001430511475,
                1.5079373121261597
            ],
            "min" : [
                5.5144243240356445,
                0,
                0.513816237449646
            ],
            "type" : "VEC3"
        },
        {
            "bufferView" : 1,
            "componentType" : 5126,
            "count" : 75180,
            "type" : "VEC3"
        },
        {
            "bufferView" : 2,
            "componentType" : 5125,
            "count" : 82920,
            "type" : "SCALAR"
        }
    ],
    "bufferViews" : [
        {
            "buffer" : 0,
            "byteLength" : 902160,
            "byteOffset" : 0,
            "target" : 34962
        },
        {
            "buffer" : 0,
            "byteLength" : 902160,
            "byteOffset" : 902160,
            "target" : 34962
        },
        {
            "buffer" : 0,
            "byteLength" : 331680,
            "byteOffset" : 1804320,
            "target" : 34963
        }
    ],
    "buffers" : [
        {
            "byteLength" : 2136000,
            "uri" : "data:application/octet-stream;base64,"
        }
    ]
}
