{
    "asset" : {
        "generator" : "Khronos glTF Blender I/O v3.4.49",
        "version" : "2.0"
    },
    "scene" : 0,
    "scenes" : [
        {
            "name" : "Scene",
            "nodes" : [
                0
            ]
        }
    ],
    "nodes" : [
        {
            "mesh" : 0,
            "name" : "Highfidelitycharms copy.002",
            "rotation" : [
                0,
                0.6920017600059509,
                0,
                0.7218958139419556
            ],
            "translation" : [
                -0.04998493194580078,
                0.343722939491272,
                -0.0028073787689208984
            ]
        }
    ],
    "materials" : [
        {
            "doubleSided" : true,
            "name" : "Material.001",
            "pbrMetallicRoughness" : {
                "baseColorFactor" : [
                    0.9335046410560608,
                    1,
                    0.9702246785163879,
                    1
                ],
                "metallicFactor" : 0,
                "roughnessFactor" : 0.5
            }
        }
    ],
    "meshes" : [
        {
            "name" : "Highfidelitycharms copy.002",
            "primitives" : [
                {
                    "attributes" : {
                        "POSITION" : 0,
                        "NORMAL" : 1
                    },
                    "indices" : 2,
                    "material" : 0
                }
            ]
        }
    ],
    "accessors" : [
        {
            "bufferView" : 0,
            "componentType" : 5126,
            "count" : 61901,
            "max" : [
                0.6197795867919922,
                0.016277074813842773,
                0.42797040939331055
            ],
            "min" : [
                -0.6301975250244141,
                -0.343722939491272,
                -0.43399930000305176
            ],
            "type" : "VEC3"
        },
        {
            "bufferView" : 1,
            "componentType" : 5126,
            "count" : 61901,
            "type" : "VEC3"
        },
        {
            "bufferView" : 2,
            "componentType" : 5123,
            "count" : 83178,
            "type" : "SCALAR"
        }
    ],
    "bufferViews" : [
        {
            "buffer" : 0,
            "byteLength" : 742812,
            "byteOffset" : 0,
            "target" : 34962
        },
        {
            "buffer" : 0,
            "byteLength" : 742812,
            "byteOffset" : 742812,
            "target" : 34962
        },
        {
            "buffer" : 0,
            "byteLength" : 166356,
            "byteOffset" : 1485624,
            "target" : 34963
        }
    ],
    "buffers" : [
        {
            "byteLength" : 1651980,
            "uri" : "data:application/octet-stream;base64,"
        }
    ]
}
