{
    "asset" : {
        "generator" : "Khronos glTF Blender I/O v3.4.49",
        "version" : "2.0"
    },
    "scene" : 0,
    "scenes" : [
        {
            "name" : "Scene",
            "nodes" : [
                0,
                1,
                2
            ]
        }
    ],
    "nodes" : [
        {
            "mesh" : 0,
            "name" : "Highfidelitycharms copy.035",
            "translation" : [
                -0.009936809539794922,
                0.34372296929359436,
                0.0014057159423828125
            ]
        },
        {
            "mesh" : 1,
            "name" : "Highfidelitycharms copy.036",
            "translation" : [
                -0.009936809539794922,
                0.34372296929359436,
                0.0014057159423828125
            ]
        },
        {
            "mesh" : 2,
            "name" : "Highfidelitycharms copy.040",
            "translation" : [
                -0.009936809539794922,
                0.34372296929359436,
                0.0014057159423828125
            ]
        }
    ],
    "materials" : [
        {
            "doubleSided" : true,
            "name" : "Material.001",
            "pbrMetallicRoughness" : {
                "baseColorFactor" : [
                    0.9335046410560608,
                    1,
                    0.9702246785163879,
                    1
                ],
                "metallicFactor" : 0,
                "roughnessFactor" : 0.5
            }
        }
    ],
    "meshes" : [
        {
            "name" : "Highfidelitycharms copy.035",
            "primitives" : [
                {
                    "attributes" : {
                        "POSITION" : 0,
                        "NORMAL" : 1
                    },
                    "indices" : 2,
                    "material" : 0
                }
            ]
        },
        {
            "name" : "Highfidelitycharms copy.036",
            "primitives" : [
                {
                    "attributes" : {
                        "POSITION" : 3,
                        "NORMAL" : 4
                    },
                    "indices" : 5,
                    "material" : 0
                }
            ]
        },
        {
            "name" : "Highfidelitycharms copy.040",
            "primitives" : [
                {
                    "attributes" : {
                        "POSITION" : 6,
                        "NORMAL" : 7
                    },
                    "indices" : 8,
                    "material" : 0
                }
            ]
        }
    ],
    "accessors" : [
        {
            "bufferView" : 0,
            "componentType" : 5126,
            "count" : 80290,
            "max" : [
                0.5229849815368652,
                0.016277045011520386,
                0.6012974977493286
            ],
            "min" : [
                -0.45975756645202637,
                -0.34372296929359436,
                -0.5247160792350769
            ],
            "type" : "VEC3"
        },
        {
            "bufferView" : 1,
            "componentType" : 5126,
            "count" : 80290,
            "type" : "VEC3"
        },
        {
            "bufferView" : 2,
            "componentType" : 5125,
            "count" : 85242,
            "type" : "SCALAR"
        },
        {
            "bufferView" : 3,
            "componentType" : 5126,
            "count" : 1764,
            "max" : [
                0.3008846044540405,
                -0.003722965717315674,
                -0.0749671459197998
            ],
            "min" : [
                -0.29910528659820557,
                -0.34372296929359436,
                -0.35495227575302124
            ],
            "type" : "VEC3"
        },
        {
            "bufferView" : 4,
            "componentType" : 5126,
            "count" : 1764,
            "type" : "VEC3"
        },
        {
            "bufferView" : 5,
            "componentType" : 5123,
            "count" : 1980,
            "type" : "SCALAR"
        },
        {
            "bufferView" : 6,
            "componentType" : 5126,
            "count" : 12403,
            "max" : [
                0.5229849815368652,
                0.016277045011520386,
                0.6012974977493286
            ],
            "min" : [
                -0.45975756645202637,
                -0.34372296929359436,
                -0.5247160792350769
            ],
            "type" : "VEC3"
        },
        {
            "bufferView" : 7,
            "componentType" : 5126,
            "count" : 12403,
            "type" : "VEC3"
        },
        {
            "bufferView" : 8,
            "componentType" : 5123,
            "count" : 14538,
            "type" : "SCALAR"
        }
    ],
    "bufferViews" : [
        {
            "buffer" : 0,
            "byteLength" : 963480,
            "byteOffset" : 0,
            "target" : 34962
        },
        {
            "buffer" : 0,
            "byteLength" : 963480,
            "byteOffset" : 963480,
            "target" : 34962
        },
        {
            "buffer" : 0,
            "byteLength" : 340968,
            "byteOffset" : 1926960,
            "target" : 34963
        },
        {
            "buffer" : 0,
            "byteLength" : 21168,
            "byteOffset" : 2267928,
            "target" : 34962
        },
        {
            "buffer" : 0,
            "byteLength" : 21168,
            "byteOffset" : 2289096,
            "target" : 34962
        },
        {
            "buffer" : 0,
            "byteLength" : 3960,
            "byteOffset" : 2310264,
            "target" : 34963
        },
        {
            "buffer" : 0,
            "byteLength" : 148836,
            "byteOffset" : 2314224,
            "target" : 34962
        },
        {
            "buffer" : 0,
            "byteLength" : 148836,
            "byteOffset" : 2463060,
            "target" : 34962
        },
        {
            "buffer" : 0,
            "byteLength" : 29076,
            "byteOffset" : 2611896,
            "target" : 34963
        }
    ],
    "buffers" : [
        {
            "byteLength" : 2640972,
            "uri" : "data:application/octet-stream;base64,"
        }
    ]
}
